<svg width="34" height="34" viewBox="0 0 34 34" fill="none" xmlns="http://www.w3.org/2000/svg">
<path d="M28.3334 15.5833L17.4109 4.66083C17.147 4.39911 16.7909 4.25156 16.4192 4.25H7.08341C6.70769 4.25 6.34736 4.39926 6.08168 4.66493C5.816 4.93061 5.66675 5.29094 5.66675 5.66667V28.3333C5.66675 28.7091 5.816 29.0694 6.08168 29.3351C6.34736 29.6007 6.70769 29.75 7.08341 29.75H17.0001C17.4181 28.0767 18.3265 26.5664 19.6088 25.4128C20.891 24.2593 22.4887 23.5152 24.1967 23.2758L27.1151 22.8508C27.4555 22.8027 27.7668 22.6325 27.9909 22.3718C28.2151 22.1112 28.3368 21.7779 28.3334 21.4342V15.5833ZM28.3334 15.5833H5.66675M11.3334 21.25H14.1667" stroke="#777D94" stroke-width="2" stroke-linecap="round" stroke-linejoin="round"/>
</svg>
