<svg width="16" height="16" viewBox="0 0 16 16" fill="none" xmlns="http://www.w3.org/2000/svg">
<path d="M13.3334 7.33333L8.19341 2.19333C8.06924 2.07017 7.90164 2.00074 7.72675 2H3.33341C3.1566 2 2.98703 2.07024 2.86201 2.19526C2.73699 2.32029 2.66675 2.48986 2.66675 2.66667V13.3333C2.66675 13.5101 2.73699 13.6797 2.86201 13.8047C2.98703 13.9298 3.1566 14 3.33341 14H8.00008C8.1968 13.2125 8.62429 12.5018 9.2277 11.959C9.83112 11.4161 10.5829 11.066 11.3867 10.9533L12.7601 10.7533C12.9203 10.7307 13.0668 10.6506 13.1722 10.5279C13.2777 10.4053 13.335 10.2484 13.3334 10.0867V7.33333ZM13.3334 7.33333H2.66675M5.33341 10H6.66675" stroke="#2CA9BC" stroke-width="1.5" stroke-linecap="round" stroke-linejoin="round"/>
</svg>
