<svg width="16" height="16" viewBox="0 0 16 16" fill="none" xmlns="http://www.w3.org/2000/svg">
<path d="M14.6666 6.82167V10.5889C14.6666 12.5112 14.6666 13.4723 14.0808 14.0695C13.495 14.6667 12.5522 14.6667 10.6666 14.6667H5.33325C3.44763 14.6667 2.50483 14.6667 1.91904 14.0695C1.33325 13.4723 1.33325 12.5112 1.33325 10.5889V8.7246C1.33325 7.32707 1.33325 6.62827 1.70209 6.0983C2.07092 5.56833 2.7179 5.33749 4.01185 4.8758L9.34518 2.97285C11.7692 2.10797 12.9811 1.67553 13.8239 2.28504C14.2825 2.61675 14.4915 3.15566 14.5868 4" stroke="#2CA9BC" stroke-width="1.5" stroke-linecap="round"/>
<path d="M6 9.33398C6 8.39118 6 7.91978 6.29289 7.62685C6.58579 7.33398 7.0572 7.33398 8 7.33398C8.9428 7.33398 9.4142 7.33398 9.70713 7.62685C10 7.91978 10 8.39118 10 9.33398C10 10.2768 10 10.7482 9.70713 11.0411C9.4142 11.334 8.9428 11.334 8 11.334C7.0572 11.334 6.58579 11.334 6.29289 11.0411C6 10.7482 6 10.2768 6 9.33398Z" stroke="#2CA9BC" stroke-width="1.5"/>
<path d="M10 7.33268L10.6667 6.66602" stroke="#2CA9BC" stroke-width="1.5" stroke-linecap="round"/>
<path d="M5.99992 7.33268L5.33325 6.66602" stroke="#2CA9BC" stroke-width="1.5" stroke-linecap="round"/>
<path d="M10 11.334L10.6667 12.0007" stroke="#2CA9BC" stroke-width="1.5" stroke-linecap="round"/>
<path d="M5.99992 11.334L5.33325 12.0007" stroke="#2CA9BC" stroke-width="1.5" stroke-linecap="round"/>
<path d="M3.33325 4.70608C3.33325 3.83606 3.33325 3.40104 3.55869 3.10137C3.61672 3.02422 3.68443 2.95516 3.76006 2.89596C4.05385 2.66602 4.48032 2.66602 5.33325 2.66602H5.87871C6.21688 2.66602 6.38597 2.66602 6.52469 2.70393C6.90119 2.80683 7.19519 3.10677 7.29605 3.49077" stroke="#2CA9BC" stroke-width="1.5" stroke-linecap="round"/>
</svg>
