<svg width="34" height="34" viewBox="0 0 34 34" fill="none" xmlns="http://www.w3.org/2000/svg">
<path d="M31.1668 14.496V22.5015C31.1668 26.5863 31.1668 28.6287 29.922 29.8976C28.6772 31.1667 26.6737 31.1667 22.6668 31.1667H11.3335C7.32655 31.1667 5.32309 31.1667 4.07829 29.8976C2.8335 28.6287 2.8335 26.5863 2.8335 22.5015V18.5398C2.8335 15.57 2.8335 14.0851 3.61727 12.9589C4.40104 11.8327 5.77587 11.3422 8.52552 10.3611L19.8589 6.3173C25.0099 4.47943 27.5852 3.56049 29.376 4.85571C30.3507 5.5606 30.7948 6.70578 30.9972 8.5" stroke="#777D94" stroke-width="2" stroke-linecap="round"/>
<path d="M12.75 19.833C12.75 17.8296 12.75 16.8278 13.3724 16.2053C13.9948 15.583 14.9966 15.583 17 15.583C19.0034 15.583 20.0052 15.583 20.6277 16.2053C21.25 16.8278 21.25 17.8296 21.25 19.833C21.25 21.8365 21.25 22.8382 20.6277 23.4607C20.0052 24.083 19.0034 24.083 17 24.083C14.9966 24.083 13.9948 24.083 13.3724 23.4607C12.75 22.8382 12.75 21.8365 12.75 19.833Z" stroke="#777D94" stroke-width="2"/>
<path d="M21.25 15.5837L22.6667 14.167" stroke="#777D94" stroke-width="2" stroke-linecap="round"/>
<path d="M12.7502 15.5837L11.3335 14.167" stroke="#777D94" stroke-width="2" stroke-linecap="round"/>
<path d="M21.25 24.083L22.6667 25.4997" stroke="#777D94" stroke-width="2" stroke-linecap="round"/>
<path d="M12.7502 24.083L11.3335 25.4997" stroke="#777D94" stroke-width="2" stroke-linecap="round"/>
<path d="M7.0835 10.0021C7.0835 8.15333 7.0835 7.22892 7.56254 6.59212C7.68586 6.42818 7.82974 6.28143 7.99046 6.15563C8.61476 5.66699 9.52101 5.66699 11.3335 5.66699H12.4926C13.2112 5.66699 13.5705 5.66699 13.8653 5.74756C14.6654 5.96622 15.2901 6.60359 15.5044 7.41959" stroke="#777D94" stroke-width="2" stroke-linecap="round"/>
</svg>
