<svg width="54" height="54" viewBox="0 0 54 54" fill="none" xmlns="http://www.w3.org/2000/svg">
<g clip-path="url(#clip0_761_4833)">
<path d="M41.752 33.0161C41.752 33.2239 41.7689 33.4273 41.7952 33.628C42.0965 36.028 44.1405 37.885 46.6214 37.885C49.1707 37.885 51.2585 35.9252 51.4701 33.4311C51.4816 33.2933 51.4909 33.1555 51.4909 33.015C51.4909 30.3251 49.3118 28.1455 46.6214 28.1455C43.9327 28.1471 41.752 30.3268 41.752 33.0161ZM49.6437 32.6027H48.2444C48.2056 32.4501 48.1449 32.3068 48.0678 32.1745L49.0614 31.1809C49.3681 31.5883 49.5715 32.0723 49.6437 32.6027ZM49.0603 34.8671L48.0618 33.8675C48.1394 33.7362 48.2028 33.5973 48.2428 33.4459H49.6421C49.5677 33.973 49.3681 34.4613 49.0603 34.8671ZM47.0436 34.6358C47.1934 34.5969 47.3356 34.5395 47.4657 34.4635L48.456 35.4544C48.0508 35.7611 47.5707 35.9673 47.0436 36.0395V34.6358ZM47.0436 29.9949C47.5751 30.0687 48.0585 30.2737 48.4664 30.5843L47.4745 31.5757C47.341 31.497 47.1978 31.4363 47.0441 31.3964L47.0436 29.9949ZM44.1826 31.1804L45.1756 32.174C45.098 32.3063 45.0378 32.4496 45.0001 32.6021H43.5997C43.6719 32.0723 43.8753 31.5883 44.1826 31.1804ZM46.2004 31.3969C46.0467 31.4368 45.9034 31.4981 45.77 31.5763L44.7786 30.5849C45.1866 30.2754 45.6705 30.0703 46.2015 29.9965L46.2004 31.3969ZM44.7874 35.4544L45.7777 34.4641C45.9073 34.5412 46.0511 34.5964 46.1998 34.6352V36.04C45.6732 35.9684 45.1926 35.7611 44.7874 35.4544ZM43.5942 33.4464H45.0045C45.0444 33.5963 45.1034 33.7384 45.18 33.8686L44.1853 34.8638C43.8775 34.458 43.6691 33.9736 43.5942 33.4464Z" fill="black"/>
<path d="M5.70117 33.0161C5.70117 33.2239 5.71758 33.4273 5.74437 33.628C6.04567 36.028 8.0897 37.885 10.5701 37.885C13.1194 37.885 15.2072 35.9252 15.4188 33.4311C15.4303 33.2933 15.4401 33.1555 15.4401 33.015C15.4401 30.3251 13.261 28.1455 10.5701 28.1455C7.88136 28.1471 5.70117 30.3268 5.70117 33.0161ZM13.5935 32.6027H12.1936C12.1548 32.4501 12.0935 32.3068 12.017 32.1745L13.0106 31.1809C13.3179 31.5883 13.5208 32.0723 13.5935 32.6027ZM13.01 34.8671L12.0115 33.8675C12.0892 33.7362 12.1526 33.5973 12.1925 33.4459H13.5918C13.5169 33.973 13.3179 34.4613 13.01 34.8671ZM10.9928 34.6358C11.1426 34.5969 11.2848 34.5395 11.4149 34.4635L12.4052 35.4544C12 35.7611 11.5199 35.9673 10.9928 36.0395V34.6358ZM10.9928 29.9949C11.5238 30.0687 12.0077 30.2737 12.4151 30.5843L11.4237 31.5757C11.2903 31.497 11.147 31.4363 10.9933 31.3964L10.9928 29.9949ZM8.13181 31.1804L9.12539 32.174C9.04774 32.3063 8.98759 32.4496 8.94931 32.6021H7.54944C7.62107 32.0723 7.82449 31.5883 8.13181 31.1804ZM10.1496 31.3969C9.99593 31.4368 9.85266 31.4981 9.71924 31.5763L8.7273 30.5843C9.13468 30.2748 9.61917 30.0698 10.1501 29.996L10.1496 31.3969ZM8.73659 35.4544L9.72635 34.4641C9.85649 34.5412 9.99976 34.5964 10.149 34.6352V36.04C9.6219 35.9684 9.14179 35.7611 8.73659 35.4544ZM7.54397 33.4464H8.95423C8.9936 33.5963 9.05321 33.7384 9.12976 33.8686L8.13509 34.8638C7.82723 34.458 7.61834 33.9736 7.54397 33.4464Z" fill="black"/>
<path d="M0.0238363 30.4516L0.577769 33.4476C0.702992 34.1257 1.2952 34.6195 1.98475 34.6195H4.78175C4.70575 34.345 4.64341 34.0639 4.60732 33.7746C4.57232 33.5012 4.55482 33.2524 4.55482 33.0167C4.55482 29.6992 7.25449 27 10.571 27C13.8886 27 16.5882 29.6992 16.5882 33.0167C16.5882 33.189 16.5768 33.3591 16.5625 33.5297C16.5308 33.9042 16.463 34.2679 16.3651 34.6189H40.8333C40.7568 34.3444 40.695 34.0639 40.6583 33.7752C40.6234 33.5007 40.6064 33.253 40.6064 33.0167C40.6064 29.6997 43.3055 27 46.6226 27C49.9396 27 52.6393 29.6997 52.6393 33.0167C52.6393 33.1884 52.6278 33.3591 52.6141 33.5297C52.5819 33.9048 52.514 34.2684 52.4162 34.62H53.1259C53.1259 34.62 54.3355 30.7316 53.9101 28.9648C53.5782 27.5873 52.729 27.0268 52.729 27.0268C52.729 27.0268 52.8088 25.0074 51.7201 22.9185C51.4893 22.4751 49.6946 20.0329 46.9928 17.5979C45.758 16.4846 44.7869 16.1374 43.1245 16.133C38.4164 16.1204 27.5925 16.0975 25.0356 16.139C23.3344 16.1669 22.3567 16.4316 20.8786 17.3125C20.7321 17.3994 20.6561 17.5679 20.6987 17.7325C20.7414 17.8971 20.8901 18.0119 21.0602 18.0119H21.1564L16.3804 22.6872C16.3804 22.6872 14.4939 22.6965 13.8651 22.7222C10.7394 22.8513 5.11805 23.3128 1.7097 25.9108C1.24982 26.2613 0.949063 26.7813 0.876335 27.3544C0.781188 28.0997 0.766971 28.9243 0.766971 28.9243C0.21085 29.2158 -0.0899032 29.8342 0.0238363 30.4516ZM39.2486 18.0113H44.1832C44.7191 18.0113 45.238 18.1891 45.6612 18.5188C46.8167 19.42 47.7217 20.4141 48.3954 21.2901C48.5321 21.4678 48.5561 21.7073 48.4577 21.9086C48.3604 22.1103 48.1575 22.2394 47.9333 22.2427L39.2492 22.3652L39.2486 18.0113ZM36.6201 18.0113H36.9547V22.3974L36.6201 22.4023V18.0113ZM18.8734 22.6511L23.6138 18.0108H34.3256V22.4335L22.9675 22.5932C22.9735 22.5369 22.9817 22.4822 22.9817 22.4242C22.9817 21.6641 22.4382 21.0479 21.7678 21.0479C21.0963 21.0479 20.5533 21.6641 20.5533 22.4242C20.5533 22.4937 20.5626 22.5604 20.5708 22.6271L18.8734 22.6511Z" fill="black"/>
</g>
<defs>
<clipPath id="clip0_761_4833">
<rect width="54" height="54" fill="white"/>
</clipPath>
</defs>
</svg>
