<svg width="60" height="60" viewBox="0 0 60 60" fill="none" xmlns="http://www.w3.org/2000/svg">
<path d="M54.375 43.125H5.625V33.75C5.625 29.625 9 26.25 13.125 26.25H46.875C51 26.25 54.375 29.625 54.375 33.75V43.125Z" stroke="#2CA9BC" stroke-width="4" stroke-miterlimit="10" stroke-linecap="round" stroke-linejoin="round"/>
<path d="M54.375 20.625H48.75L46.3125 16.6875C44.25 13.3125 40.6875 11.25 36.75 11.25H23.25C19.3125 11.25 15.5625 13.3125 13.6875 16.6875L11.25 20.625H5.625" stroke="#2CA9BC" stroke-width="4" stroke-miterlimit="10" stroke-linecap="round" stroke-linejoin="round"/>
<path d="M7.5 31.875H18.75H16.875C17.8125 34.6875 15.75 37.5 12.75 37.5H5.625" stroke="#2CA9BC" stroke-width="4" stroke-miterlimit="10" stroke-linecap="round" stroke-linejoin="round"/>
<path d="M52.5 31.875H41.25H43.125C42.1875 34.6875 44.25 37.5 47.25 37.5H54.375" stroke="#2CA9BC" stroke-width="4" stroke-miterlimit="10" stroke-linecap="round" stroke-linejoin="round"/>
<path d="M24 37H35.25" stroke="#2CA9BC" stroke-width="4" stroke-miterlimit="10" stroke-linecap="round" stroke-linejoin="round"/>
<path d="M5.625 43.125V46.875C5.625 48.9375 7.3125 50.625 9.375 50.625H13.125C15.1875 50.625 16.875 48.9375 16.875 46.875V43.125" stroke="#2CA9BC" stroke-width="4" stroke-miterlimit="10" stroke-linecap="round" stroke-linejoin="round"/>
<path d="M54.25 43V46.75C54.25 48.8125 52.5625 50.5 50.5 50.5H46.75C44.6875 50.5 43 48.8125 43 46.75V43" stroke="#2CA9BC" stroke-width="4" stroke-miterlimit="10" stroke-linecap="round" stroke-linejoin="round"/>
</svg>
