<svg width="60" height="60" viewBox="0 0 60 60" fill="none" xmlns="http://www.w3.org/2000/svg">
<g clip-path="url(#clip0_1_33)">
<path d="M12.5 20L7.5 31.8749" stroke="#2CA9BC" stroke-width="4" stroke-linecap="round" stroke-linejoin="round"/>
<path d="M3.75 48.6699V52.4999C3.75 53.4944 4.1451 54.4484 4.84835 55.1517C5.5516 55.8549 6.50545 56.2499 7.5 56.2499C8.49455 56.2499 9.4484 55.8549 10.1516 55.1517C10.8549 54.4484 11.25 53.4944 11.25 52.4999V49.1052" stroke="#2CA9BC" stroke-width="4" stroke-linecap="round" stroke-linejoin="round"/>
<path d="M56.25 48.6699V52.4999C56.25 53.4944 55.855 54.4484 55.1517 55.1517C54.4485 55.8549 53.4945 56.2499 52.5 56.2499C51.5055 56.2499 50.5515 55.8549 49.8483 55.1517C49.145 54.4484 48.75 53.4944 48.75 52.4999V48.9299" stroke="#2CA9BC" stroke-width="4" stroke-linecap="round" stroke-linejoin="round"/>
<path d="M6.875 31.875H53.125C54.451 31.875 55.7227 32.4018 56.6605 33.3395C57.5982 34.2773 58.125 35.549 58.125 36.875V46.25C58.125 46.913 57.8615 47.549 57.3927 48.0177C56.924 48.4865 56.288 48.75 55.625 48.75H4.375C3.71195 48.75 3.07607 48.4865 2.60722 48.0177C2.13839 47.549 1.875 46.913 1.875 46.25V36.875C1.875 35.549 2.40179 34.2773 3.33948 33.3395C4.27715 32.4018 5.54892 31.875 6.875 31.875Z" stroke="#2CA9BC" stroke-width="4" stroke-linecap="round" stroke-linejoin="round"/>
<path d="M31.25 10.625C31.25 13.7316 33.7685 16.25 36.875 16.25C39.9815 16.25 42.5 13.7316 42.5 10.625C42.5 7.5184 39.9815 5 36.875 5C33.7685 5 31.25 7.5184 31.25 10.625Z" stroke="#2CA9BC" stroke-width="4" stroke-linecap="round" stroke-linejoin="round"/>
<path d="M31.25 10.625H17.5V14.3199" stroke="#2CA9BC" stroke-width="4" stroke-linecap="round" stroke-linejoin="round"/>
<path d="M35.625 41.25H24.375" stroke="#2CA9BC" stroke-width="4" stroke-linecap="round" stroke-linejoin="round"/>
<path d="M58.125 40.3125H50.625" stroke="#2CA9BC" stroke-width="4" stroke-linecap="round" stroke-linejoin="round"/>
<path d="M1.875 40.3125H9.37572" stroke="#2CA9BC" stroke-width="4" stroke-linecap="round" stroke-linejoin="round"/>
<path d="M23.125 10.625V14.6416" stroke="#2CA9BC" stroke-width="4" stroke-linecap="round" stroke-linejoin="round"/>
<path d="M52.5 31.8749L47.5 20" stroke="#2CA9BC" stroke-width="4" stroke-linecap="round" stroke-linejoin="round"/>
</g>
<defs>
<clipPath id="clip0_1_33">
<rect width="60" height="60" fill="white"/>
</clipPath>
</defs>
</svg>
