<svg width="60" height="60" viewBox="0 0 60 60" fill="none" xmlns="http://www.w3.org/2000/svg">
<path d="M8.18182 10C5.92247 10 4.09091 11.7909 4.09091 14V46C4.09091 48.2091 5.92247 50 8.18182 50H51.8182C54.0775 50 55.9091 48.2091 55.9091 46V14C55.9091 11.7909 54.0775 10 51.8182 10H8.18182ZM51.8182 6C56.3369 6 60 9.58172 60 14V46C60 50.4183 56.3369 54 51.8182 54H8.18182C3.66312 54 0 50.4183 0 46V14C0 9.58172 3.66312 6 8.18182 6H51.8182ZM24.5 39.4H12C10.8703 39.4 9.95455 40.2954 9.95455 41.4C9.95455 42.5046 10.8703 43.4 12 43.4H24.5C25.6297 43.4 26.5455 42.5046 26.5455 41.4C26.5455 40.2954 25.6297 39.4 24.5 39.4ZM41.25 16C36.6769 16 32.9545 19.5734 32.9545 24C32.9545 26.3191 33.9762 28.404 35.6066 29.8636C32.5174 31.6883 30.4545 34.9725 30.4545 38.7271C30.4545 39.7986 30.6235 40.8506 30.9518 41.8548C31.2958 42.9069 32.447 43.4872 33.523 43.1508C34.599 42.8144 35.1925 41.6888 34.8484 40.6367C34.6484 40.0249 34.5455 39.3838 34.5455 38.7271C34.5455 35.2008 37.5389 32.3271 41.25 32.3271C44.9611 32.3271 47.9545 35.2008 47.9545 38.7271C47.9545 39.2446 47.8906 39.7525 47.7655 40.2443C47.4928 41.3162 48.1604 42.4013 49.2567 42.6679C50.353 42.9346 51.4627 42.2818 51.7354 41.2099C51.9407 40.4029 52.0455 39.5708 52.0455 38.7271C52.0455 34.9725 49.9826 31.6883 46.894 29.8602C48.5238 28.404 49.5455 26.3191 49.5455 24C49.5455 19.5734 45.8231 16 41.25 16ZM24.5 28.9H12C10.8703 28.9 9.95455 29.7954 9.95455 30.9C9.95455 32.0046 10.8703 32.9 12 32.9H24.5C25.6297 32.9 26.5455 32.0046 26.5455 30.9C26.5455 29.7954 25.6297 28.9 24.5 28.9ZM41.25 20C43.5804 20 45.4545 21.7992 45.4545 24C45.4545 26.2008 43.5804 28 41.25 28C38.9196 28 37.0455 26.2008 37.0455 24C37.0455 21.7992 38.9196 20 41.25 20ZM24.5 18.4H12C10.8703 18.4 9.95455 19.2954 9.95455 20.4C9.95455 21.5046 10.8703 22.4 12 22.4H24.5C25.6297 22.4 26.5455 21.5046 26.5455 20.4C26.5455 19.2954 25.6297 18.4 24.5 18.4Z" fill="#2CA9BC"/>
</svg>
