<svg width="24" height="24" viewBox="0 0 24 24" fill="none" xmlns="http://www.w3.org/2000/svg">
<path d="M15.75 5.25069C16.5456 5.25069 17.3087 5.56676 17.8713 6.12937C18.4339 6.69198 18.75 7.45504 18.75 8.25069M21.75 8.25069C21.7501 9.12581 21.5588 9.99036 21.1895 10.7837C20.8202 11.5771 20.2818 12.2801 19.6121 12.8434C18.9424 13.4066 18.1575 13.8166 17.3126 14.0445C16.4677 14.2724 15.5831 14.3128 14.721 14.1627C14.158 14.0657 13.562 14.1887 13.158 14.5927L10.5 17.2507H8.25V19.5007H6V21.7507H2.25V18.9327C2.25 18.3357 2.487 17.7627 2.909 17.3417L9.408 10.8427C9.812 10.4387 9.935 9.84269 9.838 9.27969C9.6962 8.46086 9.72604 7.62149 9.92563 6.8148C10.1252 6.0081 10.4902 5.25166 10.9975 4.59342C11.5047 3.93517 12.1432 3.38948 12.8724 2.99093C13.6016 2.59237 14.4057 2.34964 15.2336 2.27812C16.0616 2.2066 16.8953 2.30785 17.6821 2.57545C18.4688 2.84305 19.1914 3.27117 19.8041 3.83267C20.4167 4.39418 20.906 5.07682 21.241 5.83734C21.5759 6.59786 21.7493 7.41967 21.75 8.25069Z" stroke="#ADCED3" stroke-width="1.5" stroke-linecap="round" stroke-linejoin="round"/>
</svg>
