<svg width="60" height="60" viewBox="0 0 60 60" fill="none" xmlns="http://www.w3.org/2000/svg">
<path d="M35.625 43.125H5.625V33.75C5.625 29.625 9 26.25 13.125 26.25H45" stroke="#2CA9BC" stroke-width="4" stroke-miterlimit="10" stroke-linecap="round" stroke-linejoin="round"/>
<path d="M54.375 20.625H48.75L46.3125 16.6875C44.25 13.3125 40.6875 11.25 36.75 11.25H23.25C19.3125 11.25 15.5625 13.3125 13.6875 16.6875L11.25 20.625H5.625" stroke="#2CA9BC" stroke-width="4" stroke-miterlimit="10" stroke-linecap="round" stroke-linejoin="round"/>
<path d="M7.5 31.875H18.75H16.875C17.8125 34.6875 15.75 37.5 12.75 37.5H5.625" stroke="#2CA9BC" stroke-width="4" stroke-miterlimit="10" stroke-linecap="round" stroke-linejoin="round"/>
<path d="M5.625 43.125V46.875C5.625 48.9375 7.3125 50.625 9.375 50.625H13.125C15.1875 50.625 16.875 48.9375 16.875 46.875V43.125" stroke="#2CA9BC" stroke-width="4" stroke-miterlimit="10" stroke-linecap="round" stroke-linejoin="round"/>
<path d="M56.25 36.75C56.25 46.125 45.9375 54.375 45.9375 54.375C45.9375 54.375 35.625 46.125 35.625 36.75C35.625 30.9375 40.3125 26.25 45.9375 26.25C51.5625 26.25 56.25 30.9375 56.25 36.75Z" stroke="#2CA9BC" stroke-width="4" stroke-miterlimit="10" stroke-linecap="round" stroke-linejoin="round"/>
<path d="M45.9375 39.375C47.4908 39.375 48.75 38.1158 48.75 36.5625C48.75 35.0092 47.4908 33.75 45.9375 33.75C44.3842 33.75 43.125 35.0092 43.125 36.5625C43.125 38.1158 44.3842 39.375 45.9375 39.375Z" stroke="#2CA9BC" stroke-width="4" stroke-miterlimit="10" stroke-linecap="round" stroke-linejoin="round"/>
</svg>
