<svg width="60" height="60" viewBox="0 0 60 60" fill="none" xmlns="http://www.w3.org/2000/svg">
<rect x="0.5" y="0.5" width="59" height="59" rx="29.5" stroke="#6F6F6F"/>
<path fill-rule="evenodd" clip-rule="evenodd" d="M22.886 14.5555C24.5969 14.4774 25.1433 14.459 29.4999 14.459C33.8565 14.459 34.4028 14.4774 36.1138 14.5555C37.8213 14.6334 38.9874 14.9046 40.0078 15.3012C41.0628 15.7111 41.9573 16.2596 42.8491 17.1514C43.741 18.0433 44.2895 18.9379 44.6994 19.9927C45.0959 21.0131 45.3672 22.1792 45.445 23.8867C45.5231 25.5977 45.5416 26.144 45.5416 30.5007C45.5416 34.8573 45.5231 35.4036 45.445 37.1146C45.3672 38.822 45.0959 39.9881 44.6994 41.0085C44.2895 42.0635 43.741 42.958 42.8491 43.8498C41.9573 44.7417 41.0628 45.2902 40.0078 45.7001C38.9874 46.0967 37.8213 46.3679 36.1138 46.4458C34.4028 46.5238 33.8565 46.5423 29.4999 46.5423C25.1433 46.5423 24.5969 46.5238 22.886 46.4458C21.1784 46.3679 20.0124 46.0967 18.992 45.7001C17.9371 45.2902 17.0425 44.7417 16.1507 43.8498C15.2588 42.958 14.7103 42.0633 14.3004 41.0085C13.9038 39.9881 13.6327 38.822 13.5547 37.1146C13.4767 35.4036 13.4583 34.8573 13.4583 30.5007C13.4583 26.1439 13.4767 25.5977 13.5547 23.8867C13.6327 22.1792 13.9038 21.0131 14.3004 19.9927C14.7103 18.9379 15.2588 18.0433 16.1507 17.1514C17.0425 16.2596 17.9371 15.7111 18.992 15.3012C20.0124 14.9046 21.1784 14.6334 22.886 14.5555ZM35.9821 17.4429C34.2905 17.3657 33.7832 17.3494 29.4999 17.3494C25.2166 17.3494 24.7092 17.3657 23.0176 17.4429C21.4537 17.5142 20.6042 17.7756 20.0389 17.9953C19.2902 18.2863 18.7558 18.6339 18.1945 19.1953C17.6331 19.7566 17.2855 20.2909 16.9944 21.0397C16.7748 21.605 16.5135 22.4544 16.4421 24.0184C16.3649 25.71 16.3486 26.2174 16.3486 30.5007C16.3486 34.7839 16.3649 35.2913 16.4421 36.9828C16.5135 38.5469 16.7748 39.3963 16.9944 39.9616C17.2855 40.7103 17.6331 41.2448 18.1945 41.8061C18.7558 42.3674 19.2902 42.7151 20.0389 43.006C20.6042 43.2256 21.4537 43.4871 23.0177 43.5584C24.709 43.6356 25.2162 43.6519 29.4999 43.6519C33.7835 43.6519 34.2908 43.6356 35.9821 43.5584C37.5461 43.4871 38.3955 43.2256 38.9607 43.006C39.7096 42.7151 40.244 42.3674 40.8054 41.8061C41.3667 41.2448 41.7142 40.7103 42.0053 39.9616C42.2249 39.3963 42.4862 38.5469 42.5577 36.9828C42.6348 35.2913 42.6512 34.7839 42.6512 30.5007C42.6512 26.2174 42.6348 25.71 42.5577 24.0184C42.4862 22.4544 42.2249 21.605 42.0053 21.0397C41.7142 20.2909 41.3667 19.7566 40.8054 19.1952C40.244 18.6339 39.7096 18.2863 38.9607 17.9953C38.3955 17.7756 37.5461 17.5142 35.9821 17.4429ZM24.1526 30.5007C24.1526 33.4538 26.5467 35.8479 29.4999 35.8479C32.453 35.8479 34.8472 33.4538 34.8472 30.5007C34.8472 27.5475 32.453 25.1534 29.4999 25.1534C26.5467 25.1534 24.1526 27.5475 24.1526 30.5007ZM21.2622 30.5007C21.2622 25.9511 24.9504 22.2631 29.4999 22.2631C34.0493 22.2631 37.7375 25.9511 37.7375 30.5007C37.7375 35.0502 34.0493 38.7382 29.4999 38.7382C24.9504 38.7382 21.2622 35.0502 21.2622 30.5007ZM38.063 23.8626C39.1261 23.8626 39.988 23.0007 39.988 21.9376C39.988 20.8744 39.1261 20.0126 38.063 20.0126C36.9998 20.0126 36.138 20.8744 36.138 21.9376C36.138 23.0007 36.9998 23.8626 38.063 23.8626Z" fill="white"/>
</svg>
