<svg width="54" height="54" viewBox="0 0 54 54" fill="none" xmlns="http://www.w3.org/2000/svg">
<g clip-path="url(#clip0_761_4825)">
<path d="M52.8302 19.8238H51.7972C51.1505 19.8238 50.6275 20.3468 50.6275 20.9929V23.1477L46.9369 23.2425C46.8519 23.2452 46.7691 23.2125 46.7081 23.1537C46.6481 23.0948 46.6133 23.0137 46.6133 22.9287V20.1218C46.6133 17.6717 44.6209 15.6777 42.1703 15.6777C42.1703 15.6777 36.0629 15.6537 33.7142 15.6755C33.7142 14.9204 33.1024 14.3086 32.3472 14.3086H26.5068C25.1442 14.3086 23.8917 15.0566 23.2461 16.2563L20.0813 22.1354C20.0813 22.1354 5.55046 23.6206 4.80842 24.3517C4.06638 25.0829 3.89313 26.5076 3.89313 26.5076C3.89313 26.5076 3.19577 26.6972 2.72395 27.3608C2.52946 27.6364 2.50385 27.9971 2.65803 28.2968C2.81276 28.5964 3.12222 28.7849 3.45946 28.7849V29.5564L0.561035 30.2314C0.202546 30.3142 -0.260548 30.8901 0.179663 31.7062C0.832353 32.9184 3.54608 32.9277 3.54608 32.9277L4.87543 28.762C5.11679 28.0047 5.80162 27.4768 6.59487 27.4338L11.435 27.1287C12.1498 27.0911 12.8259 27.4556 13.1877 28.0734L17.1262 34.8204H33.1819L38.04 27.8429C38.3898 27.339 38.9586 27.0339 39.571 27.0202L44.5402 26.9156C45.3411 26.8982 46.0674 27.382 46.3605 28.1273L47.9067 32.0614H51.5308C52.1775 32.0614 52.6999 31.5379 52.6999 30.8923V30.2793H52.8312C53.4785 30.2793 54.0004 29.7558 54.0004 29.1102V20.9935C53.9999 20.3468 53.4769 19.8238 52.8302 19.8238ZM24.3395 22.3348V20.7652C24.3395 20.5315 24.1521 20.343 23.9195 20.3397L22.9661 20.3277L24.6201 17.055C25.0478 16.2089 25.9151 15.6761 26.8631 15.6761H31.6052C31.7932 15.6761 31.9457 15.8286 31.9457 16.0166V22.3746L24.3395 22.3348ZM44.9221 22.9886C44.9221 23.1586 44.7865 23.2975 44.616 23.3019L34.0863 23.5726C34.0019 23.5748 33.919 23.5427 33.8586 23.4838C33.7986 23.425 33.7638 23.3433 33.7638 23.2594L33.761 17.6821C33.761 17.5993 33.7948 17.5181 33.8531 17.4593C33.912 17.4015 33.9926 17.3677 34.0754 17.3677H42.1687C43.6865 17.3677 44.9221 18.6028 44.9221 20.1212V22.9886Z" fill="black"/>
<path d="M9.51907 29.1955C6.6212 29.2239 4.29429 31.5938 4.32153 34.4928C4.32371 34.7178 4.34441 34.9352 4.37437 35.1526C4.72415 37.7372 6.94536 39.7165 9.61986 39.6914C12.3679 39.6664 14.5973 37.534 14.8 34.8431C14.8114 34.6955 14.8196 34.5451 14.818 34.3942C14.7913 31.4952 12.418 29.1688 9.51907 29.1955ZM9.08431 31.1928L9.09847 32.702C8.9334 32.7461 8.7803 32.8131 8.63538 32.9008L7.55664 31.8417C7.99413 31.5045 8.5128 31.2778 9.08431 31.1928ZM6.92139 32.4911L8.00339 33.5508C7.92058 33.6963 7.85684 33.8499 7.81652 34.0144L6.30847 34.0297C6.38148 33.456 6.59504 32.9335 6.92139 32.4911ZM6.31065 34.9363L7.83069 34.9226C7.87427 35.0855 7.93965 35.237 8.02519 35.3765L6.96062 36.459C6.62773 36.0248 6.39728 35.5056 6.31065 34.9363ZM7.61821 37.091L8.67515 36.0134C8.81571 36.0929 8.97044 36.1534 9.13116 36.1932L9.14642 37.7056C8.57818 37.6337 8.05679 37.4163 7.61821 37.091ZM12.8234 33.9676L11.3137 33.9818C11.2707 33.8172 11.2036 33.6658 11.1192 33.5208L12.1794 32.441C12.5167 32.8769 12.7395 33.3955 12.8234 33.9676ZM9.99306 31.1836C10.5668 31.2588 11.0892 31.4745 11.5311 31.8036L10.473 32.8829C10.3287 32.7995 10.1734 32.7352 10.0072 32.6938L9.99306 31.1836ZM10.0546 37.6974L10.0394 36.1855C10.2012 36.1419 10.3548 36.0809 10.4954 35.9943L11.5714 37.0534C11.1383 37.3869 10.6234 37.6157 10.0546 37.6974ZM12.217 36.4122L11.1301 35.346C11.2118 35.2054 11.281 35.0539 11.3219 34.8883L12.8294 34.8763C12.7553 35.4451 12.5455 35.9725 12.217 36.4122Z" fill="black"/>
<path d="M41.6441 29.1955C38.7467 29.2239 36.4193 31.5938 36.4465 34.4928C36.4492 34.7178 36.4694 34.9352 36.4994 35.1526C36.8497 37.7372 39.0709 39.7165 41.7454 39.6914C44.4935 39.6664 46.7223 37.534 46.925 34.8431C46.937 34.6955 46.9451 34.5451 46.9435 34.3942C46.9163 31.4952 44.5436 29.1688 41.6441 29.1955ZM41.2093 31.1928L41.2235 32.702C41.0584 32.7461 40.9048 32.8131 40.7598 32.9008L39.6811 31.8417C40.1186 31.5045 40.6373 31.2778 41.2093 31.1928ZM39.0464 32.4911L40.1284 33.5508C40.045 33.6963 39.9807 33.8499 39.941 34.0144L38.4329 34.0297C38.5059 33.456 38.72 32.9335 39.0464 32.4911ZM38.4362 34.9363L39.9562 34.9226C39.9998 35.0855 40.0652 35.237 40.1502 35.3765L39.0867 36.459C38.7527 36.0248 38.5223 35.5056 38.4362 34.9363ZM39.7427 37.091L40.7991 36.0134C40.9396 36.0929 41.0949 36.1534 41.2562 36.1932L41.2709 37.7056C40.7026 37.6337 40.1818 37.4163 39.7427 37.091ZM44.9478 33.9676L43.4382 33.9818C43.3962 33.8172 43.3292 33.6658 43.2447 33.5208L44.3055 32.441C44.6411 32.8769 44.8645 33.3955 44.9478 33.9676ZM42.1181 31.1836C42.6918 31.2588 43.2148 31.4745 43.6561 31.8036L42.598 32.8829C42.4531 32.7995 42.2984 32.7352 42.1328 32.6938L42.1181 31.1836ZM42.1791 37.6974L42.1649 36.1855C42.3262 36.1419 42.4793 36.0809 42.6198 35.9943L43.6969 37.0534C43.2627 37.3869 42.7479 37.6157 42.1791 37.6974ZM44.342 36.4122L43.2551 35.346C43.3363 35.2054 43.4055 35.0539 43.4474 34.8883L44.9549 34.8763C44.8797 35.4451 44.67 35.9725 44.342 36.4122Z" fill="black"/>
</g>
<defs>
<clipPath id="clip0_761_4825">
<rect width="54" height="54" fill="white"/>
</clipPath>
</defs>
</svg>
