<svg width="34" height="34" viewBox="0 0 34 34" fill="none" xmlns="http://www.w3.org/2000/svg">
<path d="M2.8335 5.66634C2.8335 4.10153 4.10202 2.83301 5.66683 2.83301C7.23164 2.83301 8.50016 4.10153 8.50016 5.66634C8.50016 6.85541 7.76769 7.87341 6.72933 8.29372V15.9372H15.9377V8.29372C14.8992 7.87341 14.1668 6.85541 14.1668 5.66634C14.1668 4.10153 15.4353 2.83301 17.0002 2.83301C18.565 2.83301 19.8335 4.10153 19.8335 5.66634C19.8335 6.85541 19.1011 7.87341 18.0627 8.29372V15.9372H22.6668C24.0325 15.9372 24.9499 15.9349 25.6342 15.843C26.288 15.755 26.5678 15.6031 26.7524 15.4185C26.9369 15.2339 27.0888 14.9541 27.1768 14.3004C27.2687 13.6161 27.271 12.6987 27.271 11.333V8.29372C26.2326 7.87341 25.5002 6.85541 25.5002 5.66634C25.5002 4.10153 26.7686 2.83301 28.3335 2.83301C29.8983 2.83301 31.1668 4.10153 31.1668 5.66634C31.1668 6.85541 30.4344 7.87341 29.396 8.29372V11.4067C29.396 12.6795 29.3961 13.7409 29.2828 14.5835C29.1632 15.4729 28.9002 16.2759 28.2549 16.921C27.6097 17.5663 26.8068 17.8294 25.9174 17.949C25.0747 18.0623 24.0134 18.0622 22.7405 18.0622H18.0627V25.7057C19.1011 26.126 19.8335 27.144 19.8335 28.333C19.8335 29.8979 18.565 31.1663 17.0002 31.1663C15.4353 31.1663 14.1668 29.8979 14.1668 28.333C14.1668 27.144 14.8992 26.126 15.9377 25.7057V18.0622H6.72933V25.7057C7.76769 26.126 8.50016 27.144 8.50016 28.333C8.50016 29.8979 7.23164 31.1663 5.66683 31.1663C4.10202 31.1663 2.8335 29.8979 2.8335 28.333C2.8335 27.144 3.56597 26.126 4.60433 25.7057V8.29372C3.56597 7.87341 2.8335 6.85541 2.8335 5.66634Z" fill="#777D94"/>
<path opacity="0.5" fill-rule="evenodd" clip-rule="evenodd" d="M24.4375 21.25C24.4375 20.6632 24.9132 20.1875 25.5 20.1875H28.7381C30.6867 20.1875 32.2292 21.7939 32.2292 23.7292C32.2292 25.257 31.2677 26.5801 29.9039 27.0692L32.0728 30.6119C32.3792 31.1123 32.2219 31.7665 31.7214 32.0728C31.2211 32.3792 30.5668 32.2219 30.2606 31.7214L27.5356 27.2708H26.5625V31.1667C26.5625 31.7534 26.0868 32.2292 25.5 32.2292C24.9132 32.2292 24.4375 31.7534 24.4375 31.1667V21.25ZM26.5625 25.1458H28.7381C29.472 25.1458 30.1042 24.5323 30.1042 23.7292C30.1042 22.9261 29.472 22.3125 28.7381 22.3125H26.5625V25.1458Z" fill="#777D94"/>
</svg>
