<svg width="54" height="54" viewBox="0 0 54 54" fill="none" xmlns="http://www.w3.org/2000/svg">
<g clip-path="url(#clip0_761_4791)">
<path d="M9.88648 26.2758C7.65516 26.366 5.91999 28.2441 6.0102 30.4749C6.01781 30.6466 6.03683 30.8156 6.06563 30.9825C6.39603 32.9633 8.1524 34.4354 10.2087 34.3512C12.3238 34.2669 13.9899 32.5736 14.0834 30.4983C14.0877 30.3841 14.0915 30.2684 14.0866 30.1532C13.997 27.9219 12.1162 26.1856 9.88648 26.2758ZM9.599 27.8235L9.64411 28.9848C9.51858 29.0234 9.40283 29.0788 9.29305 29.1489L8.43715 28.3599C8.76702 28.0876 9.16046 27.9007 9.599 27.8235ZM7.96491 28.8729L8.82136 29.6636C8.76321 29.776 8.71702 29.8978 8.6893 30.0239L7.52908 30.0711C7.57093 29.6288 7.72254 29.2207 7.96491 28.8729ZM7.55136 30.7694L8.72028 30.7232C8.75941 30.8466 8.81266 30.9618 8.88114 31.0694L8.08827 31.9269C7.82145 31.6003 7.63125 31.2047 7.55136 30.7694ZM8.60833 32.3981L9.39739 31.5438C9.50553 31.6009 9.62781 31.6449 9.75225 31.6704L9.79844 32.8361C9.36044 32.7921 8.9545 32.6356 8.60833 32.3981ZM12.5411 29.8706L11.3804 29.9173C11.3434 29.7924 11.288 29.6766 11.219 29.5674L12.0102 28.7098C12.2787 29.0386 12.4634 29.4331 12.5411 29.8706ZM10.2979 27.7952C10.7418 27.8387 11.1483 27.9925 11.4961 28.2365L10.7071 29.0913C10.5951 29.0294 10.4728 28.9837 10.3446 28.956L10.2979 27.7952ZM10.4978 32.8078L10.4516 31.6427C10.5755 31.6063 10.6897 31.5531 10.7962 31.4851L11.6494 32.2758C11.3238 32.5426 10.9331 32.7301 10.4978 32.8078ZM12.1325 31.7672L11.2717 30.9721C11.3298 30.8613 11.3787 30.7434 11.4075 30.6156L12.5667 30.5695C12.5221 31.0102 12.3748 31.4216 12.1325 31.7672Z" fill="black"/>
<path d="M41.0168 25.3246C38.786 25.4148 37.0514 27.2929 37.141 29.5242C37.1486 29.696 37.1682 29.865 37.1964 30.0313C37.5263 32.0126 39.2827 33.4842 41.3401 33.3994C43.4546 33.3157 45.1213 31.6219 45.2137 29.5471C45.2185 29.4324 45.2229 29.3172 45.2169 29.2014C45.1267 26.9707 43.2454 25.2349 41.0168 25.3246ZM40.7287 26.8723L40.7738 28.0341C40.6494 28.0722 40.5326 28.1276 40.4239 28.1977L39.5674 27.4092C39.8957 27.1364 40.2913 26.9489 40.7287 26.8723ZM39.0946 27.9217L39.9511 28.7118C39.8924 28.8254 39.8468 28.9466 39.819 29.0732L38.6577 29.1199C38.7007 28.6781 38.8523 28.2695 39.0946 27.9217ZM38.6822 29.8182L39.8506 29.772C39.8897 29.8954 39.9424 30.0106 40.0103 30.1177L39.2185 30.9752C38.9517 30.6502 38.7615 30.2541 38.6822 29.8182ZM39.7375 31.4469L40.5266 30.5926C40.6358 30.6508 40.757 30.6931 40.8814 30.7192L40.9282 31.8849C40.4907 31.8409 40.0848 31.6849 39.7375 31.4469ZM43.6709 28.9189L42.5096 28.9656C42.4726 28.8411 42.4183 28.7259 42.3487 28.6167L43.1399 27.7586C43.4078 28.0874 43.5932 28.4814 43.6709 28.9189ZM41.427 26.844C41.8716 26.887 42.2775 27.0413 42.6259 27.2858L41.8368 28.1401C41.7248 28.0782 41.6026 28.0325 41.4738 28.0048L41.427 26.844ZM41.6287 31.8566L41.5819 30.691C41.7064 30.6546 41.8199 30.6024 41.9265 30.5345L42.7796 31.3246C42.4541 31.5914 42.0623 31.7795 41.6287 31.8566ZM43.2617 30.816L42.4009 30.0215C42.4596 29.9101 42.5079 29.7921 42.5367 29.6644L43.6964 29.6182C43.6529 30.059 43.5057 30.4709 43.2617 30.816Z" fill="black"/>
<path d="M53.9514 26.907C53.8813 26.7814 53.7465 26.7037 53.602 26.7081L52.9814 26.7271C52.9814 26.7271 53.2938 25.1794 53.4009 24.386C53.4118 24.3045 53.3862 24.2219 53.3308 24.1605C53.2748 24.0996 53.196 24.0654 53.114 24.0681C51.0544 24.1317 42.1405 22.2058 39.3565 20.1293C39.0609 19.9087 38.7044 19.794 38.3354 19.7598C36.2307 19.5641 31.9773 19.6696 30.2247 19.725C29.7107 19.7413 29.215 19.8788 28.764 20.1282C28.764 20.1282 24.5464 22.6666 23.0357 23.2953C20.4838 24.3577 14.4724 24.0491 12.8073 23.9502C10.7021 23.8252 7.24204 23.7034 3.49564 26.382C3.49564 26.382 1.72243 26.8428 0.344841 27.6053C0.144315 27.7167 0.0144359 27.9221 0.000306793 28.1509C-0.0138224 28.3796 0.0894291 28.5997 0.274738 28.734C0.486132 28.8872 0.593731 28.9128 0.593731 28.9128L0.685571 29.2676C0.87251 29.9915 1.38877 30.586 2.07892 30.8707L3.37554 31.4066C4.11461 31.712 4.90421 31.8782 5.70305 31.8973C5.60632 31.6342 5.53296 31.3609 5.48677 31.0751C5.4547 30.8854 5.43188 30.693 5.42427 30.4958C5.37428 29.2616 5.80793 28.0808 6.64644 27.1727C7.48387 26.2652 8.62615 25.738 9.86083 25.6886C12.4312 25.6103 14.5696 27.602 14.6713 30.1268C14.6761 30.2577 14.6723 30.3882 14.6669 30.5197C14.6419 31.0751 14.5126 31.6082 14.3044 32.0978L15.3929 32.1239L37.6637 32.363C37.1317 31.7424 36.7589 30.9772 36.6165 30.1257C36.5845 29.9366 36.5611 29.7437 36.5546 29.5464C36.5041 28.3123 36.9388 27.1314 37.7762 26.2239C38.6142 25.3158 39.7559 24.7887 40.9911 24.7398C43.5616 24.661 45.6994 26.6532 45.8016 29.1774C45.8065 29.3084 45.8021 29.4388 45.7972 29.5698C45.7766 30.0377 45.6826 30.4876 45.5299 30.9115L49.9094 30.7778C50.0159 30.7745 50.1186 30.7262 50.1887 30.6452L51.2103 29.4687L52.3287 29.435C52.4532 29.4312 52.5689 29.3676 52.6379 29.2638L53.9362 27.3086C54.015 27.1874 54.0215 27.0325 53.9514 26.907ZM35.4406 23.0155L35.34 23.0361C35.0276 23.1002 34.7504 23.2785 34.5618 23.5372C33.6011 24.1404 28.9417 24.1648 25.8404 23.8034L29.4134 20.8928C29.5965 20.7439 29.8248 20.6613 30.0595 20.657L35.2786 20.5836C35.5813 20.5798 35.8307 20.8189 35.8389 21.1205L35.8802 22.4574C35.8889 22.7269 35.7036 22.9622 35.4406 23.0155Z" fill="black"/>
</g>
<defs>
<clipPath id="clip0_761_4791">
<rect width="54" height="54" fill="white"/>
</clipPath>
</defs>
</svg>
