<svg width="247" height="52" viewBox="0 0 247 52" fill="none" xmlns="http://www.w3.org/2000/svg">
<path d="M71.3438 9.81641H82.1055C90.5625 9.81641 95.543 14.8555 95.543 23.8008C95.543 32.7461 90.5625 38 82.1055 38H71.3438V9.81641ZM77.2422 14.6797V33.1172H81.4023C86.6758 33.1172 89.5273 29.9141 89.5273 23.8203C89.5273 17.9219 86.5977 14.6797 81.4023 14.6797H77.2422ZM98.8633 38V17.0625H104.371V20.832H104.488C105.23 18.1758 107.008 16.7305 109.469 16.7305C110.133 16.7305 110.699 16.8281 111.09 16.9453V21.9648C110.621 21.7695 109.84 21.6328 109.02 21.6328C106.207 21.6328 104.566 23.3516 104.566 26.3008V38H98.8633ZM113.531 38V17.0625H119.234V38H113.531ZM116.383 14.7578C114.664 14.7578 113.336 13.4492 113.336 11.8086C113.336 10.1484 114.664 8.85938 116.383 8.85938C118.102 8.85938 119.43 10.1484 119.43 11.8086C119.43 13.4492 118.102 14.7578 116.383 14.7578ZM142.184 17.0625L134.996 38H128.551L121.305 17.0625H127.418L131.773 32.9609H131.891L136.227 17.0625H142.184ZM152.984 20.832C150.484 20.832 148.688 22.7266 148.492 25.3438H157.379C157.262 22.668 155.523 20.832 152.984 20.832ZM157.457 31.5938H162.691C162.066 35.6953 158.316 38.4492 153.141 38.4492C146.695 38.4492 142.828 34.3281 142.828 27.6289C142.828 20.9492 146.734 16.6133 152.926 16.6133C159.02 16.6133 162.867 20.7344 162.867 27.1016V28.8398H148.434V29.1914C148.434 32.1797 150.328 34.2305 153.238 34.2305C155.328 34.2305 156.93 33.1953 157.457 31.5938Z" fill="black"/>
<path d="M171.949 38H166.305V9.81641H171.227L184.391 28.1758H184.547V9.81641H190.191V38H185.309L172.125 19.543H171.949V38ZM204.02 38.4492C197.691 38.4492 193.648 34.3867 193.648 27.5117C193.648 20.7344 197.75 16.6133 204.02 16.6133C210.289 16.6133 214.391 20.7148 214.391 27.5117C214.391 34.4062 210.348 38.4492 204.02 38.4492ZM204.02 34.0938C206.812 34.0938 208.59 31.7305 208.59 27.5312C208.59 23.3711 206.793 20.9688 204.02 20.9688C201.246 20.9688 199.43 23.3711 199.43 27.5312C199.43 31.7305 201.207 34.0938 204.02 34.0938ZM246.52 17.0625L240.973 38H234.898L231.109 23.1953H230.992L227.223 38H221.227L215.66 17.0625H221.402L224.566 32.5898H224.684L228.395 17.0625H233.863L237.594 32.5898H237.711L240.895 17.0625H246.52Z" fill="#2CA9BC"/>
<path d="M8.5 39.3145H42.5M24.4375 39.3145C21.422 39.3138 18.4686 38.4577 15.9203 36.8456C13.3719 35.2335 11.3332 32.9315 10.0409 30.2069C8.74865 27.4824 8.25583 24.4472 8.61972 21.4537C8.9836 18.4603 10.1893 15.6315 12.0966 13.2959C14.004 10.9604 16.5349 9.21382 19.3953 8.25919C22.2556 7.30455 25.3281 7.18098 28.2559 7.90284C31.1837 8.6247 33.8467 10.1624 35.9354 12.3372C38.0242 14.5121 39.4532 17.2349 40.0562 20.1895" stroke="black" stroke-width="5" stroke-linecap="round" stroke-linejoin="round"/>
<path d="M19.125 26.5V7.375M27.625 26.5V7.375" stroke="#2CA9BC" stroke-width="5" stroke-linecap="round" stroke-linejoin="round"/>
</svg>
