<svg width="24" height="24" viewBox="0 0 24 24" fill="none" xmlns="http://www.w3.org/2000/svg">
<path fill-rule="evenodd" clip-rule="evenodd" d="M5.27078 8.214C6.02055 6.312 6.92243 5 8.96408 5H14.4367C16.4764 5 17.3793 6.312 18.13 8.214L18.8798 10.249C19.4385 10.2559 19.9517 10.5661 20.2282 11.064C20.3909 11.3476 20.4761 11.6709 20.4749 12V14.624C20.4822 15.2367 20.1806 15.8098 19.6774 16.14C19.438 16.2929 19.1618 16.3739 18.8798 16.374H4.52003C4.23808 16.3739 3.9618 16.2929 3.72248 16.14C3.2192 15.8098 2.91767 15.2367 2.92493 14.624V12C2.92387 11.6713 3.00908 11.3483 3.1716 11.065C3.44814 10.5671 3.96136 10.2569 4.52003 10.25L5.27078 8.214Z" stroke="black" stroke-width="2" stroke-linecap="round" stroke-linejoin="round"/>
<path d="M6.86647 16.375C6.86647 15.9608 6.53069 15.625 6.11647 15.625C5.70226 15.625 5.36647 15.9608 5.36647 16.375H6.86647ZM6.11647 17.688H5.36647C5.36647 17.6958 5.36659 17.7036 5.36684 17.7114L6.11647 17.688ZM4.91917 19L4.89237 19.7495C4.91004 19.7502 4.92772 19.7502 4.94538 19.7496L4.91917 19ZM3.72285 17.687L4.47246 17.711C4.47272 17.703 4.47285 17.695 4.47285 17.687H3.72285ZM4.47285 16.14C4.47285 15.7258 4.13706 15.39 3.72285 15.39C3.30863 15.39 2.97285 15.7258 2.97285 16.14H4.47285ZM4.5204 9.49902C4.10618 9.49902 3.7704 9.83481 3.7704 10.249C3.7704 10.6632 4.10618 10.999 4.5204 10.999V9.49902ZM18.8802 10.999C19.2944 10.999 19.6302 10.6632 19.6302 10.249C19.6302 9.83481 19.2944 9.49902 18.8802 9.49902V10.999ZM18.0351 16.374C18.0351 15.9598 17.6993 15.624 17.2851 15.624C16.8709 15.624 16.5351 15.9598 16.5351 16.374H18.0351ZM17.2851 17.687L18.0337 17.7336C18.0346 17.7181 18.0351 17.7026 18.0351 17.687H17.2851ZM19.6787 17.687H18.9287C18.9287 17.7026 18.9292 17.7181 18.9302 17.7336L19.6787 17.687ZM20.4287 16.14C20.4287 15.7258 20.093 15.39 19.6787 15.39C19.2645 15.39 18.9287 15.7258 18.9287 16.14H20.4287ZM5.8503 12.75C5.43608 12.75 5.1003 13.0858 5.1003 13.5C5.1003 13.9142 5.43608 14.25 5.8503 14.25V12.75ZM6.8253 14.25C7.23951 14.25 7.5753 13.9142 7.5753 13.5C7.5753 13.0858 7.23951 12.75 6.8253 12.75V14.25ZM16.5753 12.75C16.1611 12.75 15.8253 13.0858 15.8253 13.5C15.8253 13.9142 16.1611 14.25 16.5753 14.25V12.75ZM17.5503 14.25C17.9645 14.25 18.3003 13.9142 18.3003 13.5C18.3003 13.0858 17.9645 12.75 17.5503 12.75V14.25ZM5.36647 16.375V17.688H6.86647V16.375H5.36647ZM5.36684 17.7114C5.3764 18.0175 5.146 18.2416 4.89296 18.2505L4.94538 19.7496C6.05945 19.7106 6.90035 18.7608 6.86611 17.6646L5.36684 17.7114ZM4.94597 18.2505C4.69291 18.2415 4.46266 18.0171 4.47246 17.711L2.97323 17.663C2.93811 18.7592 3.77831 19.7097 4.89237 19.7495L4.94597 18.2505ZM4.47285 17.687V16.14H2.97285V17.687H4.47285ZM4.5204 10.999H18.8802V9.49902H4.5204V10.999ZM16.5351 16.374V17.687H18.0351V16.374H16.5351ZM16.5366 17.6404C16.4914 18.3667 16.8427 19.0678 17.4644 19.4543L18.2563 18.1803C18.114 18.0919 18.0219 17.9219 18.0337 17.7336L16.5366 17.6404ZM17.4644 19.4543C18.0889 19.8424 18.8749 19.8424 19.4994 19.4543L18.7076 18.1803C18.568 18.2671 18.3959 18.2671 18.2563 18.1803L17.4644 19.4543ZM19.4994 19.4543C20.1212 19.0678 20.4725 18.3667 20.4273 17.6404L18.9302 17.7336C18.9419 17.9219 18.8499 18.0919 18.7076 18.1803L19.4994 19.4543ZM20.4287 17.687V16.14H18.9287V17.687H20.4287ZM5.8503 14.25H6.8253V12.75H5.8503V14.25ZM16.5753 14.25H17.5503V12.75H16.5753V14.25Z" fill="black"/>
</svg>
