<svg width="30" height="30" viewBox="0 0 30 30" fill="none" xmlns="http://www.w3.org/2000/svg">
<path d="M13.125 1.875H10.3125C9.56658 1.875 8.85121 2.17132 8.32376 2.69876C7.79632 3.22621 7.5 3.94158 7.5 4.6875V25.3125C7.5 26.0584 7.79632 26.7738 8.32376 27.3012C8.85121 27.8287 9.56658 28.125 10.3125 28.125H19.6875C20.4334 28.125 21.1488 27.8287 21.6762 27.3012C22.2037 26.7738 22.5 26.0584 22.5 25.3125V4.6875C22.5 3.94158 22.2037 3.22621 21.6762 2.69876C21.1488 2.17132 20.4334 1.875 19.6875 1.875H16.875M13.125 1.875V3.75H16.875V1.875M13.125 1.875H16.875M13.125 25.3125H16.875" stroke="white" stroke-width="2" stroke-linecap="round" stroke-linejoin="round"/>
</svg>
