<svg width="54" height="54" viewBox="0 0 54 54" fill="none" xmlns="http://www.w3.org/2000/svg">
<g clip-path="url(#clip0_761_4799)">
<path d="M9.67756 27.416C7.30465 27.416 5.37988 29.3386 5.37988 31.7121C5.37988 31.897 5.39457 32.0765 5.41795 32.2527C5.68445 34.3716 7.48793 36.0108 9.67756 36.0108C11.9286 36.0108 13.7713 34.2819 13.9584 32.0792C13.9682 31.9568 13.9769 31.8366 13.9769 31.7115C13.9769 29.3386 12.0527 27.416 9.67756 27.416ZM7.52492 30.0935L8.40218 30.9702C8.33365 31.0877 8.27981 31.2133 8.24609 31.3482H7.01096C7.07459 30.8799 7.25352 30.4535 7.52492 30.0935ZM7.00606 32.0922H8.25044C8.28579 32.2249 8.338 32.3511 8.40653 32.4664L7.52763 33.3437C7.25679 32.9864 7.07187 32.5589 7.00606 32.0922ZM9.30555 34.3836C8.84109 34.3199 8.41632 34.1372 8.059 33.8674L8.933 32.9934C9.04721 33.0603 9.17339 33.1098 9.30555 33.1435V34.3836ZM9.30555 30.2833C9.17067 30.3181 9.0445 30.3725 8.92593 30.4416L8.05084 29.5665C8.4098 29.2929 8.83782 29.1124 9.3061 29.0471L9.30555 30.2833ZM10.0501 29.0471C10.5195 29.1124 10.9464 29.2929 11.3065 29.567L10.4314 30.4416C10.3133 30.3725 10.1866 30.3181 10.0507 30.2833L10.0501 29.0471ZM10.0501 34.3836V33.1435C10.1828 33.1093 10.3085 33.0598 10.4238 32.9918L11.2972 33.8674C10.9399 34.1361 10.5162 34.3188 10.0501 34.3836ZM11.8308 33.3459L10.9497 32.4653C11.0177 32.3495 11.0742 32.2266 11.1096 32.0922H12.3447C12.2794 32.5589 12.1032 32.9891 11.8308 33.3459ZM11.1101 31.3488C11.0764 31.2139 11.0231 31.0882 10.9551 30.9708L11.8313 30.094C12.1032 30.4535 12.2822 30.8799 12.3463 31.3493L11.1101 31.3488Z" fill="black"/>
<path d="M40.6585 27.416C38.2855 27.416 36.3613 29.3386 36.3613 31.7121C36.3613 31.897 36.3755 32.0765 36.3978 32.2527C36.6643 34.3716 38.4688 36.0108 40.6585 36.0108C42.9096 36.0108 44.7516 34.2819 44.9387 32.0792C44.9496 31.9568 44.9572 31.8366 44.9572 31.7115C44.9572 29.3386 43.033 27.416 40.6585 27.416ZM38.5053 30.0935L39.3825 30.9702C39.314 31.0877 39.2607 31.2133 39.2264 31.3482H37.9913C38.0549 30.8799 38.2344 30.4535 38.5053 30.0935ZM37.987 32.0922H39.2313C39.2662 32.2249 39.3184 32.3511 39.3869 32.4664L38.508 33.3437C38.2382 32.9864 38.0528 32.5589 37.987 32.0922ZM40.2865 34.3836C39.8214 34.3199 39.3972 34.1372 39.0394 33.8674L39.9128 32.9934C40.0276 33.0603 40.1537 33.1098 40.2865 33.1435V34.3836ZM40.2865 30.2833C40.1505 30.3181 40.0243 30.3725 39.9063 30.4416L39.0317 29.5665C39.3907 29.2929 39.8182 29.1124 40.2875 29.0471L40.2865 30.2833ZM41.0299 29.0471C41.4987 29.1124 41.9257 29.2929 42.2863 29.567L41.4117 30.4416C41.2932 30.3725 41.167 30.3181 41.031 30.2833L41.0299 29.0471ZM41.0299 34.3836V33.1435C41.1626 33.1093 41.2883 33.0598 41.4036 32.9918L42.2776 33.8674C41.9202 34.1361 41.4966 34.3188 41.0299 34.3836ZM42.8111 33.3459L41.93 32.4653C41.998 32.3495 42.0546 32.2266 42.0905 32.0922H43.3256C43.2593 32.5589 43.0836 32.9891 42.8111 33.3459ZM42.091 31.3488C42.0573 31.2139 42.004 31.0882 41.936 30.9708L42.8122 30.094C43.0836 30.4535 43.2625 30.8799 43.3262 31.3493L42.091 31.3488Z" fill="black"/>
<path d="M53.2986 28.634H52.4507L52.2332 23.5385C52.2201 23.2241 51.959 22.9772 51.6447 22.9799L39.9318 23.0871V18.8558C39.9318 18.462 39.6126 18.1433 39.2188 18.1433H38.6603C38.2671 18.1433 37.9478 18.462 37.9478 18.8558V23.1056L36.3923 23.1197L36.0801 19.3746C36.0149 18.5914 35.3601 17.9883 34.5736 17.9883H20.3481C19.8515 17.9883 19.3746 18.1803 19.0167 18.5235L14.2404 23.1072L5.09737 24.072C3.83015 24.2053 2.67007 24.8449 1.88036 25.8456L0.938921 27.0389C0.223185 27.481 -0.135227 28.3295 0.0469703 29.1518L0.330328 30.4332C0.452699 30.9885 0.886709 31.4203 1.442 31.5405L4.5622 32.2192C4.54425 32.0441 4.52739 31.8717 4.52739 31.7124C4.52739 28.8728 6.83776 26.563 9.67786 26.563C12.5191 26.563 14.83 28.8733 14.83 31.7124C14.83 31.8603 14.8202 32.0055 14.8088 32.1507C14.8055 32.1882 14.7979 32.2247 14.7941 32.2617H35.5466C35.5248 32.0691 35.5085 31.8853 35.5085 31.7124C35.5085 28.8728 37.8189 26.563 40.6595 26.563C43.5013 26.563 45.8117 28.8733 45.8117 31.7124C45.8117 31.8603 45.8013 32.0055 45.7904 32.1507C45.7872 32.1882 45.779 32.2247 45.7758 32.2617H48.3907L50.7598 30.9558H53.3008C53.6875 30.9558 54.0007 30.6431 54.0007 30.2564V29.3345C53.9986 28.9462 53.6853 28.634 53.2986 28.634ZM17.9861 23.3873C17.9861 23.3873 18.2901 22.6547 17.9861 21.8155L19.8717 19.4774C19.9793 19.3442 20.1414 19.2664 20.3122 19.2664H25.9549V23.3868L17.9861 23.3873ZM28.0433 23.3873V19.2669H33.1639C33.4674 19.2669 33.717 19.5062 33.7295 19.8092L33.878 23.3873H28.0433Z" fill="black"/>
</g>
<defs>
<clipPath id="clip0_761_4799">
<rect width="54" height="54" fill="white"/>
</clipPath>
</defs>
</svg>
