<svg width="54" height="54" viewBox="0 0 54 54" fill="none" xmlns="http://www.w3.org/2000/svg">
<g clip-path="url(#clip0_761_4782)">
<path d="M9.42637 28.458C7.17617 28.458 5.35156 30.2821 5.35156 32.5328C5.35156 32.7063 5.36575 32.8771 5.38757 33.0446C5.6402 35.0531 7.34968 36.6065 9.42583 36.6065C11.5582 36.6065 13.3064 34.9675 13.4837 32.8798C13.493 32.7658 13.5006 32.6496 13.5006 32.5323C13.5012 30.2821 11.6771 28.458 9.42637 28.458ZM7.38679 30.9974L8.21724 31.8284C8.15286 31.9392 8.10212 32.0587 8.06938 32.1863H6.89844C6.95846 31.7433 7.12815 31.3384 7.38679 30.9974ZM6.89299 32.8919H8.0732C8.10648 33.0173 8.15559 33.1363 8.22106 33.2454L7.38842 34.0775C7.13034 33.7392 6.95682 33.3344 6.89299 32.8919ZM9.07389 35.064C8.63247 35.0024 8.23143 34.8294 7.89205 34.5735L8.72032 33.7447C8.82945 33.8085 8.94894 33.8554 9.07389 33.8882V35.064ZM9.07389 31.1775C8.94567 31.2113 8.82563 31.2615 8.71377 31.3275L7.88386 30.4976C8.22488 30.2384 8.62975 30.0671 9.07389 30.0054V31.1775ZM9.7794 30.0043C10.2236 30.066 10.629 30.2384 10.9694 30.4971L10.1401 31.327C10.0288 31.2609 9.90763 31.2107 9.77995 31.1769L9.7794 30.0043ZM9.7794 35.0629V33.8887C9.9049 33.8554 10.0233 33.8091 10.1324 33.7447L10.9612 34.5735C10.6219 34.8294 10.2203 35.0013 9.7794 35.0629ZM11.4665 34.0813L10.6311 33.2449C10.6966 33.1352 10.7495 33.0179 10.7828 32.8924H11.9538C11.8916 33.3333 11.7251 33.7414 11.4665 34.0813ZM10.7845 32.1863C10.7512 32.0587 10.701 31.9392 10.6366 31.8284L11.4681 30.9974C11.7251 31.3384 11.8948 31.7433 11.9559 32.1869H10.7845V32.1863Z" fill="white"/>
<path d="M43.2604 28.458C41.0102 28.458 39.1855 30.2821 39.1855 32.5328C39.1855 32.7063 39.1997 32.8771 39.2216 33.0446C39.4742 35.0531 41.1837 36.6065 43.2593 36.6065C45.3916 36.6065 47.1398 34.9675 47.3177 32.8798C47.327 32.7658 47.3346 32.6496 47.3346 32.5323C47.3357 30.2821 45.5111 28.458 43.2604 28.458ZM41.2208 30.9974L42.0507 31.8284C41.9863 31.9392 41.9356 32.0587 41.9028 32.1863H40.7319C40.7924 31.7433 40.9621 31.3384 41.2208 30.9974ZM40.7275 32.8919H41.9077C41.941 33.0173 41.9901 33.1363 42.0556 33.2454L41.2235 34.0775C40.9643 33.7392 40.7903 33.3344 40.7275 32.8919ZM42.9079 35.064C42.4665 35.0024 42.0654 34.8294 41.726 34.5735L42.5543 33.7447C42.6634 33.8085 42.7829 33.8554 42.9079 33.8882V35.064ZM42.9079 31.1775C42.7797 31.2113 42.6596 31.2615 42.5478 31.3275L41.7178 30.4976C42.0589 30.2384 42.4632 30.0671 42.9079 30.0054V31.1775ZM43.6139 30.0043C44.0581 30.066 44.4635 30.2384 44.804 30.4971L43.9741 31.327C43.8627 31.2609 43.7416 31.2097 43.6139 31.1769V30.0043ZM43.6139 35.0629V33.8887C43.7394 33.8554 43.8578 33.8091 43.967 33.7447L44.7958 34.5735C44.4564 34.8294 44.0543 35.0013 43.6139 35.0629ZM45.3005 34.0813L44.4651 33.246C44.5306 33.1358 44.5841 33.019 44.6168 32.8929H45.7877C45.7255 33.3333 45.5597 33.7414 45.3005 34.0813ZM44.6184 32.1863C44.5852 32.0587 44.5355 31.9392 44.4706 31.8284L45.3016 30.9974C45.5591 31.3384 45.7283 31.7433 45.7899 32.1869H44.6184V32.1863Z" fill="white"/>
<path d="M53.0449 26.3484V23.3333C53.0449 22.8482 52.6924 22.4373 52.2134 22.3626C51.0637 22.1825 49.0258 21.8426 48.1102 21.5605C46.7974 21.1556 41.7251 19.008 39.9687 18.6048C38.2118 18.2015 30.2902 16.0485 22.7032 18.6784C21.4193 19.1231 15.6437 21.884 12.2477 23.3196C11.2475 23.3414 1.34804 25.405 0.820954 26.8193C0.29387 28.2342 0.128542 28.9206 0.0314185 29.2796C-0.0657048 29.6386 0.0314185 31.3568 0.766936 32.5534C1.51664 32.9774 2.95985 33.2622 4.62841 33.4532C4.60931 33.3511 4.58857 33.2507 4.57548 33.1476C4.54656 32.9272 4.53292 32.7258 4.53292 32.5338C4.53292 29.8356 6.72747 27.64 9.42619 27.64C12.1249 27.64 14.3195 29.8351 14.3195 32.5338C14.3195 32.6724 14.3102 32.8099 14.2998 32.9452C14.2742 33.248 14.2196 33.5421 14.1405 33.8253C14.1443 33.8253 14.1536 33.8253 14.1536 33.8253L38.4431 33.3364C38.4322 33.2737 38.418 33.2115 38.4098 33.1476C38.3809 32.9283 38.3673 32.7264 38.3673 32.5338C38.3673 29.8356 40.5618 27.6405 43.2606 27.6405C45.9593 27.6405 48.1544 29.8351 48.1544 32.5338C48.1544 32.5441 48.1533 32.5529 48.1527 32.5627L48.2564 32.554L52.4092 31.7721C52.4092 31.7721 53.9998 30.9252 53.9998 28.5954C54.0003 27.0414 53.0449 26.3484 53.0449 26.3484ZM28.9501 23.4898L19.8789 23.7676C20.0459 22.4084 19.2411 22.1034 19.2411 22.1034C22.8472 18.8301 30.1151 18.7193 30.1151 18.7193L28.9501 23.4898ZM39.1306 23.0746L30.8642 23.3523L31.6134 18.7199C35.8857 18.6642 38.3264 19.6071 38.3264 19.6071L39.547 21.5768L39.1306 23.0746ZM43.7909 23.0462H41.4878L39.1852 19.8843C40.9127 20.5718 42.2953 21.2495 43.1187 21.6778C43.6185 21.9375 43.8913 22.4924 43.7909 23.0462Z" fill="white"/>
</g>
<defs>
<clipPath id="clip0_761_4782">
<rect width="54" height="54" fill="white"/>
</clipPath>
</defs>
</svg>
