<svg width="60" height="60" viewBox="0 0 60 60" fill="none" xmlns="http://www.w3.org/2000/svg">
<rect x="0.5" y="0.5" width="59" height="59" rx="29.5" stroke="#6F6F6F"/>
<path fill-rule="evenodd" clip-rule="evenodd" d="M45.7045 19.5544C46.1681 17.2943 43.9482 15.4161 41.7962 16.2476L15.4161 26.4399C13.0128 27.3685 12.9057 30.7292 15.245 31.8088L20.9898 34.4603L23.7227 44.0254C23.8647 44.5222 24.259 44.9069 24.7592 45.0366C25.2593 45.1661 25.7908 45.0214 26.1562 44.6559L30.3659 40.4462L36.263 44.869C37.9748 46.1528 40.4402 45.2177 40.8701 43.1216L45.7045 19.5544ZM16.4673 29.1606L42.8473 18.9683L38.013 42.5357L31.1041 37.3539C30.5236 36.9185 29.7111 36.9762 29.1979 37.4894L27.3948 39.2925L27.9366 36.313L38.552 25.6977C39.0687 25.181 39.1232 24.3619 38.6797 23.7813C38.2362 23.2006 37.4317 23.0378 36.7973 23.4003L22.1372 31.7774L16.4673 29.1606ZM23.9247 34.1153L24.809 37.2104L25.1485 35.343C25.2016 35.0512 25.3424 34.7824 25.5521 34.5727L28.7894 31.3355L23.9247 34.1153Z" fill="white"/>
</svg>
