<svg width="60" height="60" viewBox="0 0 60 60" fill="none" xmlns="http://www.w3.org/2000/svg">
<rect x="0.5" y="0.5" width="59" height="59" rx="29.5" stroke="#6F6F6F"/>
<path d="M30.2174 14.125C32.0078 14.0977 33.7852 14.1119 35.5614 14.0977C35.6205 16.3191 36.5217 18.3184 37.9557 19.7994L37.9535 19.7972C39.4967 21.1873 41.5049 22.0886 43.7186 22.2417L43.7492 22.2439V27.752C41.658 27.6995 39.6914 27.2172 37.9185 26.3881L38.0082 26.4253C37.1507 26.013 36.4255 25.5897 35.7364 25.1172L35.7933 25.1544C35.7802 29.1455 35.8064 33.1366 35.766 37.1134C35.6533 39.1402 34.9796 40.9886 33.8989 42.5319L33.9208 42.498C32.1139 45.0858 29.1871 46.7844 25.8588 46.885H25.8435C25.7089 46.8916 25.5503 46.8948 25.3907 46.8948C23.4985 46.8948 21.7299 46.3677 20.2227 45.4522L20.2664 45.4773C17.5233 43.8269 15.6311 41.0028 15.2811 37.7183L15.2767 37.6734C15.2494 36.9898 15.2363 36.3063 15.2636 35.6369C15.7996 30.4098 20.1789 26.3663 25.5022 26.3663C26.1005 26.3663 26.6867 26.4177 27.2566 26.515L27.1953 26.5063C27.2227 28.5286 27.1407 30.552 27.1407 32.5744C26.678 32.407 26.1442 32.3097 25.5875 32.3097C23.5444 32.3097 21.8064 33.6156 21.1633 35.4389L21.1535 35.4717C21.008 35.9387 20.9238 36.4758 20.9238 37.0314C20.9238 37.2567 20.938 37.4798 20.9642 37.6986L20.9621 37.6723C21.3252 39.9102 23.2436 41.5989 25.5569 41.5989C25.6236 41.5989 25.6892 41.5978 25.7549 41.5945H25.745C27.3452 41.5464 28.7342 40.6856 29.5196 39.4136L29.5305 39.3939C29.8225 38.987 30.0227 38.4948 30.0894 37.96L30.0905 37.9447C30.2272 35.498 30.1725 33.0655 30.1857 30.6187C30.1988 25.1106 30.1725 19.6156 30.213 14.1217L30.2174 14.125Z" fill="white"/>
</svg>
