<svg width="20" height="20" viewBox="0 0 20 20" fill="none" xmlns="http://www.w3.org/2000/svg">
<path d="M18.3332 8.52708V13.2362C18.3332 15.639 18.3332 16.8404 17.6009 17.5868C16.8687 18.3333 15.6902 18.3333 13.3332 18.3333H6.6665C4.30948 18.3333 3.13097 18.3333 2.39874 17.5868C1.6665 16.8404 1.6665 15.639 1.6665 13.2362V10.9057C1.6665 9.15883 1.6665 8.28534 2.12755 7.62288C2.58859 6.96042 3.39731 6.67186 5.01475 6.09475L11.6814 3.71606C14.7114 2.63496 16.2263 2.09441 17.2798 2.8563C17.8531 3.27094 18.1143 3.94458 18.2334 5" stroke="black" stroke-width="2" stroke-linecap="round"/>
<path d="M7.5 11.667C7.5 10.4885 7.5 9.89924 7.86612 9.53308C8.23223 9.16699 8.8215 9.16699 10 9.16699C11.1785 9.16699 11.7678 9.16699 12.1339 9.53308C12.5 9.89924 12.5 10.4885 12.5 11.667C12.5 12.8455 12.5 13.4347 12.1339 13.8009C11.7678 14.167 11.1785 14.167 10 14.167C8.8215 14.167 8.23223 14.167 7.86612 13.8009C7.5 13.4347 7.5 12.8455 7.5 11.667Z" stroke="black" stroke-width="2"/>
<path d="M12.5 9.16634L13.3333 8.33301" stroke="black" stroke-width="2" stroke-linecap="round"/>
<path d="M7.49984 9.16634L6.6665 8.33301" stroke="black" stroke-width="2" stroke-linecap="round"/>
<path d="M12.5 14.167L13.3333 15.0003" stroke="black" stroke-width="2" stroke-linecap="round"/>
<path d="M7.49984 14.167L6.6665 15.0003" stroke="black" stroke-width="2" stroke-linecap="round"/>
<path d="M4.1665 5.88308C4.1665 4.79556 4.1665 4.25179 4.4483 3.8772C4.52084 3.78077 4.60547 3.69444 4.70001 3.62044C5.06725 3.33301 5.60034 3.33301 6.6665 3.33301H7.34832C7.77104 3.33301 7.9824 3.33301 8.1558 3.3804C8.62642 3.50902 8.99392 3.88395 9.12 4.36395" stroke="black" stroke-width="2" stroke-linecap="round"/>
</svg>
