<svg width="16" height="16" viewBox="0 0 16 16" fill="none" xmlns="http://www.w3.org/2000/svg">
<path d="M1.33325 2.66732C1.33325 1.93094 1.93021 1.33398 2.66659 1.33398C3.40297 1.33398 3.99992 1.93094 3.99992 2.66732C3.99992 3.22688 3.65523 3.70594 3.16659 3.90373V7.50065H7.49992V3.90373C7.01125 3.70594 6.66658 3.22688 6.66658 2.66732C6.66658 1.93094 7.26352 1.33398 7.99992 1.33398C8.73632 1.33398 9.33325 1.93094 9.33325 2.66732C9.33325 3.22688 8.98858 3.70594 8.49992 3.90373V7.50065H10.6666C11.3093 7.50065 11.741 7.49958 12.063 7.45632C12.3707 7.41492 12.5023 7.34345 12.5892 7.25658C12.6761 7.16972 12.7475 7.03805 12.7889 6.73038C12.8322 6.40836 12.8333 5.97666 12.8333 5.33398V3.90373C12.3446 3.70594 11.9999 3.22688 11.9999 2.66732C11.9999 1.93094 12.5969 1.33398 13.3333 1.33398C14.0697 1.33398 14.6666 1.93094 14.6666 2.66732C14.6666 3.22688 14.3219 3.70594 13.8333 3.90373V5.36864C13.8333 5.96764 13.8333 6.46712 13.78 6.86365C13.7237 7.28218 13.5999 7.66005 13.2963 7.96365C12.9927 8.26732 12.6148 8.39112 12.1963 8.44738C11.7997 8.50072 11.3003 8.50065 10.7013 8.50065H8.49992V12.0976C8.98858 12.2954 9.33325 12.7745 9.33325 13.334C9.33325 14.0704 8.73632 14.6673 7.99992 14.6673C7.26352 14.6673 6.66658 14.0704 6.66658 13.334C6.66658 12.7745 7.01125 12.2954 7.49992 12.0976V8.50065H3.16659V12.0976C3.65523 12.2954 3.99992 12.7745 3.99992 13.334C3.99992 14.0704 3.40297 14.6673 2.66659 14.6673C1.93021 14.6673 1.33325 14.0704 1.33325 13.334C1.33325 12.7745 1.67795 12.2954 2.16659 12.0976V3.90373C1.67795 3.70594 1.33325 3.22688 1.33325 2.66732Z" fill="#2CA9BC"/>
<path opacity="0.5" fill-rule="evenodd" clip-rule="evenodd" d="M11.5 10C11.5 9.72387 11.7239 9.5 12 9.5H13.5238C14.4408 9.5 15.1667 10.2559 15.1667 11.1667C15.1667 11.8857 14.7142 12.5083 14.0724 12.7385L15.0931 14.4056C15.2373 14.6411 15.1633 14.9489 14.9277 15.0931C14.6923 15.2373 14.3844 15.1633 14.2403 14.9277L12.9579 12.8333H12.5V14.6667C12.5 14.9428 12.2761 15.1667 12 15.1667C11.7239 15.1667 11.5 14.9428 11.5 14.6667V10ZM12.5 11.8333H13.5238C13.8692 11.8333 14.1667 11.5446 14.1667 11.1667C14.1667 10.7887 13.8692 10.5 13.5238 10.5H12.5V11.8333Z" fill="#2CA9BC"/>
</svg>
