<svg width="54" height="54" viewBox="0 0 54 54" fill="none" xmlns="http://www.w3.org/2000/svg">
<g clip-path="url(#clip0_761_4807)">
<path d="M53.5107 28.3502L53.1417 28.2927C53.2741 23.2318 52.4795 22.2125 51.5904 19.1132H52.0794C52.3117 19.1132 52.499 18.9249 52.499 18.6931V18.2106C52.499 17.9788 52.3107 17.791 52.0794 17.791H22.3205C21.8836 17.791 21.4553 17.9083 21.0797 18.1303L12.0603 23.4582C12.0603 23.4582 3.03121 23.8224 1.63193 25.207C0.924684 25.9066 0.28529 27.2869 0.0518954 28.88C-0.1815 30.4725 0.428041 32.1703 0.774334 32.5367C1.12117 32.9031 1.67698 33.0784 1.67698 33.0784L1.89734 33.4969C2.03955 33.7661 2.32071 33.9316 2.62521 33.924L4.0766 33.8893V29.882C4.0766 28.328 5.33802 27.066 6.89308 27.066H10.7463C12.1092 27.066 13.2148 28.1706 13.2148 29.5351V33.6668L13.2805 33.6651L36.8458 33.3031L37.185 33.3373V29.8814C37.185 28.3274 38.4465 27.0655 40.001 27.0655H43.8552C45.2187 27.0655 46.3233 28.17 46.3233 29.5346V34.0521L49.5751 33.3617C49.746 33.3254 49.8926 33.2119 49.9707 33.0545L50.2085 32.5812L53.4972 32.1508C53.7848 32.1133 54.0003 31.8674 54.0003 31.5765V28.9207C53.9992 28.6374 53.7919 28.3947 53.5107 28.3502ZM25.2037 23.7182C25.1315 23.7952 25.0306 23.8392 24.9242 23.8392H17.7459C17.7459 23.8392 18.1867 23.6129 18.4174 23.2899C18.6486 22.968 18.5205 22.2054 18.261 21.9482C18.0228 21.7126 17.5435 21.5525 17.5435 21.5525L21.1535 19.3298C21.3847 19.187 21.6507 19.1121 21.9226 19.1121H24.9774C25.0794 19.1121 25.1771 19.1528 25.2488 19.2256C25.3204 19.2983 25.3601 19.396 25.3584 19.4986L25.3058 23.4305C25.3128 23.5369 25.2765 23.6405 25.2037 23.7182ZM34.2193 23.399C33.9783 23.6916 33.6206 23.8642 33.2407 23.8729L27.4953 23.9977C27.3928 23.9999 27.2929 23.9613 27.2196 23.8897C27.1458 23.8175 27.1045 23.7187 27.1045 23.6161V19.4937C27.1045 19.2831 27.275 19.1127 27.4856 19.1127H33.8621C34.0597 19.1127 34.2242 19.263 34.2415 19.4601L34.4988 22.3493C34.5623 22.7232 34.4603 23.107 34.2193 23.399ZM51.2153 23.4023C51.1817 23.4593 51.1203 23.4935 51.0541 23.494L39.3833 23.5819C38.878 23.5857 38.4068 23.3279 38.136 22.9007L36.9126 19.6272C36.8686 19.51 36.8849 19.3792 36.956 19.2766C37.0276 19.174 37.1449 19.1127 37.2692 19.1127H49.6152C49.7813 19.1127 49.9268 19.2191 49.9783 19.3765L51.2202 23.2161C51.2517 23.2753 51.2495 23.3458 51.2153 23.4023Z" fill="black"/>
<path d="M8.64424 27.8799C6.34557 27.8799 4.47949 29.7432 4.47949 32.0441C4.47949 32.2227 4.49415 32.3953 4.51586 32.5684C4.77476 34.6212 6.52197 36.2099 8.64369 36.2099C10.8267 36.2099 12.6114 34.5349 12.7927 32.3996C12.803 32.2807 12.8106 32.164 12.8106 32.0441C12.8111 29.7432 10.9462 27.8799 8.64424 27.8799ZM6.55834 30.4755L7.40941 31.3238C7.34265 31.4394 7.28946 31.5616 7.25798 31.6918H6.06006C6.12194 31.237 6.29563 30.8234 6.55834 30.4755ZM6.05572 32.4126H7.26286C7.29706 32.5396 7.34645 32.6618 7.4143 32.7741L6.56159 33.6247C6.29889 33.2789 6.11977 32.8642 6.05572 32.4126ZM8.28383 34.6315C7.83387 34.5713 7.42298 34.3938 7.07615 34.1322L7.92342 33.2843C8.03361 33.3495 8.15682 33.3967 8.28383 33.4309V34.6315ZM8.28383 30.6595C8.15411 30.6931 8.03089 30.7458 7.91583 30.8125L7.06855 29.9642C7.41647 29.6987 7.83007 29.5234 8.28329 29.4599L8.28383 30.6595ZM9.00464 29.4605C9.46058 29.5234 9.87417 29.6982 10.2226 29.9658L9.37427 30.8131C9.26083 30.7468 9.13654 30.6931 9.0041 30.6605L9.00464 29.4605ZM9.00464 34.6315V33.4303C9.13328 33.3967 9.2554 33.3495 9.36776 33.2832L10.214 34.1322C9.86766 34.3932 9.45678 34.5702 9.00464 34.6315ZM10.7312 33.6268L9.87797 32.773C9.94311 32.6618 9.99847 32.5418 10.0321 32.4126H11.2284C11.1654 32.8642 10.9956 33.2816 10.7312 33.6268ZM10.0321 31.6918C10.0006 31.5621 9.94853 31.4394 9.88286 31.3238L10.7318 30.4755C10.9956 30.825 11.1692 31.237 11.2311 31.6918H10.0321Z" fill="black"/>
<path d="M41.7527 27.8799C39.4535 27.8799 37.5869 29.7432 37.5869 32.0441C37.5869 32.2227 37.601 32.3953 37.6238 32.5684C37.8822 34.6212 39.6299 36.2099 41.7517 36.2099C43.9342 36.2099 45.7188 34.5349 45.9001 32.3996C45.911 32.2807 45.918 32.164 45.918 32.0441C45.9191 29.7432 44.0552 27.8799 41.7527 27.8799ZM39.6668 30.4755L40.5168 31.3238C40.4501 31.4394 40.3974 31.5616 40.3659 31.6918H39.1686C39.2299 31.237 39.4036 30.8234 39.6668 30.4755ZM39.1637 32.4126H40.3708C40.405 32.5396 40.4539 32.6618 40.5217 32.7741L39.6701 33.6247C39.4069 33.2789 39.2277 32.8642 39.1637 32.4126ZM41.3918 34.6315C40.9413 34.5713 40.5304 34.3938 40.1836 34.1322L41.0314 33.2843C41.1416 33.3495 41.2653 33.3967 41.3918 33.4309V34.6315ZM41.3918 30.6595C41.2626 30.6931 41.1389 30.7458 41.0232 30.8125L40.176 29.9642C40.5233 29.6987 40.9369 29.5234 41.3907 29.4599L41.3918 30.6595ZM42.1137 29.4605C42.5691 29.5234 42.9827 29.6982 43.3311 29.9658L42.4828 30.8131C42.3693 30.7468 42.245 30.6931 42.1131 30.6605L42.1137 29.4605ZM42.1137 34.6315V33.4303C42.2412 33.3967 42.3639 33.3495 42.4763 33.2832L43.3225 34.1322C42.9756 34.3932 42.5653 34.5702 42.1137 34.6315ZM43.8397 33.6268L42.9859 32.773C43.0511 32.6618 43.107 32.5418 43.1406 32.4126H44.3369C44.274 32.8642 44.1035 33.2816 43.8397 33.6268ZM43.1406 31.6918C43.1086 31.5621 43.0565 31.4394 42.9919 31.3238L43.8403 30.4755C44.103 30.825 44.2778 31.237 44.3396 31.6918H43.1406Z" fill="black"/>
</g>
<defs>
<clipPath id="clip0_761_4807">
<rect width="54" height="54" fill="white"/>
</clipPath>
</defs>
</svg>
