<svg width="54" height="54" viewBox="0 0 54 54" fill="none" xmlns="http://www.w3.org/2000/svg">
<path d="M8.21691 28.2119C5.03865 28.2119 2.46094 30.7885 2.46094 33.9679C2.46094 34.2137 2.4811 34.4535 2.51216 34.6916C2.86912 37.5282 5.28388 39.7233 8.21691 39.7233C11.2284 39.7233 13.6982 37.4072 13.9478 34.4589C13.9609 34.2965 13.9723 34.1336 13.9723 33.9679C13.9723 30.7885 11.3957 28.2119 8.21691 28.2119ZM6.05284 32.3379L6.93405 33.2196C6.86539 33.3374 6.81143 33.4643 6.77765 33.5995H5.53511C5.59888 33.1297 5.77926 32.6992 6.05284 32.3379ZM5.52966 34.3488H6.78201C6.81688 34.4823 6.8692 34.6077 6.93841 34.7238L6.05502 35.6072C5.78144 35.2458 5.5967 34.8175 5.52966 34.3488ZM7.84306 36.6519C7.37493 36.5865 6.94877 36.4028 6.58909 36.1309L7.46703 35.2529C7.58311 35.3211 7.70954 35.3701 7.84252 35.4039L7.84306 36.6519ZM7.84306 32.5297C7.70627 32.564 7.57984 32.6191 7.46104 32.6888L6.58091 31.8076C6.94277 31.533 7.37221 31.3509 7.84306 31.2855V32.5297ZM8.59185 31.2861C9.06271 31.3515 9.49269 31.5335 9.854 31.8087L8.97333 32.6894C8.85562 32.6196 8.72755 32.5646 8.59185 32.5303V31.2861ZM8.59185 36.6508V35.4039C8.72482 35.3701 8.85071 35.3194 8.96679 35.2518L9.84528 36.1303C9.4856 36.4023 9.05889 36.5854 8.59185 36.6508ZM10.381 35.6093L9.49487 34.7227C9.56462 34.606 9.62021 34.4829 9.65563 34.3483H10.8982C10.8311 34.8164 10.6551 35.2502 10.381 35.6093ZM9.65727 33.6C9.62293 33.4643 9.56898 33.3379 9.50086 33.2202L10.3826 32.3384C10.6551 32.7003 10.8355 33.1297 10.8998 33.6H9.65727Z" fill="black"/>
<path d="M43.753 28.2119C40.5753 28.2119 37.9971 30.7885 37.9971 33.9679C37.9971 34.2137 38.0172 34.4535 38.0488 34.6916C38.4058 37.5282 40.82 39.7233 43.753 39.7233C46.7651 39.7233 49.2354 37.4072 49.4845 34.4589C49.497 34.2965 49.509 34.1336 49.509 33.9679C49.509 30.7885 46.9324 28.2119 43.753 28.2119ZM41.589 32.3379L42.4707 33.2196C42.4015 33.3374 42.3476 33.4643 42.3132 33.5995H41.0718C41.1356 33.1297 41.3154 32.6992 41.589 32.3379ZM41.0663 34.3488H42.3187C42.3525 34.4823 42.4059 34.6077 42.4751 34.7238L41.5911 35.6072C41.3176 35.2458 41.1334 34.8175 41.0663 34.3488ZM43.3792 36.6519C42.9116 36.5865 42.4849 36.4028 42.1252 36.1309L43.0037 35.2529C43.1192 35.3211 43.2457 35.3701 43.3787 35.4039L43.3792 36.6519ZM43.3792 32.5297C43.243 32.564 43.1165 32.6191 42.9977 32.6888L42.1176 31.8076C42.4795 31.533 42.9089 31.3509 43.3792 31.2855V32.5297ZM44.1285 31.2861C44.5999 31.3515 45.0288 31.5335 45.3901 31.8087L44.5106 32.6894C44.3918 32.6196 44.2637 32.5646 44.1285 32.5303V31.2861ZM44.1285 36.6508V35.4039C44.2615 35.3701 44.3879 35.3194 44.5035 35.2518L45.3825 36.1303C45.0223 36.4023 44.5956 36.5854 44.1285 36.6508ZM45.9177 35.6093L45.031 34.7227C45.1013 34.606 45.1563 34.4829 45.1929 34.3483H46.4343C46.3678 34.8164 46.1923 35.2502 45.9177 35.6093ZM45.1939 33.6C45.1596 33.4643 45.1057 33.3379 45.0375 33.2202L45.9198 32.3384C46.1923 32.7003 46.3722 33.1297 46.4359 33.6H45.1939Z" fill="black"/>
<path d="M41.3712 14.2769L25.9294 14.4715C25.4662 14.4769 25.0956 14.8573 25.1016 15.3206C25.1065 15.7767 25.4766 16.1429 25.93 16.1484C25.9376 16.1484 25.9436 16.1484 25.9507 16.1484L41.3924 15.9538C41.8556 15.9484 42.2262 15.568 42.2208 15.1048C42.2142 14.6415 41.8213 14.2595 41.3712 14.2769Z" fill="black"/>
<path d="M35.263 33.8105H17.0315C16.5683 33.8105 16.1934 34.186 16.1934 34.6493C16.1934 35.113 16.5683 35.488 17.0315 35.488H35.263C35.7262 35.488 36.1011 35.113 36.1011 34.6493C36.1011 34.186 35.7262 33.8105 35.263 33.8105Z" fill="black"/>
<path d="M53.7657 29.0243C53.5711 28.7867 53.2779 28.6494 52.9711 28.6494H52.0179L51.0495 18.0454C50.9961 17.4601 50.5013 17.0148 49.9127 17.0236L22.649 17.4323C22.225 17.4388 21.8261 17.6372 21.5656 17.9724L17.9519 22.6171L6.11838 23.3501C5.47477 23.3904 4.88566 23.7256 4.5238 24.2591L3.8573 25.2395C3.8573 25.2395 2.71613 25.6412 2.4104 25.894C2.145 26.1137 1.61693 27.0216 1.61693 27.0216C1.51665 27.1633 1.50466 27.3502 1.58477 27.5033C1.66434 27.6576 1.82347 27.754 1.99732 27.754V28.7873H1.01255C0.45287 28.7878 0 29.2412 0 29.7998V31.6658C0 32.359 0.561864 32.922 1.25616 32.922H1.92919L3.66383 28.136C3.82188 27.7001 4.23605 27.4096 4.69928 27.4096H10.7539C11.0972 27.4096 11.4215 27.5698 11.6297 27.8434L15.7082 33.1972H36.9969L39.9845 28.1562C40.1823 27.8216 40.542 27.6167 40.9316 27.6167H46.4909C46.8832 27.6167 47.2456 27.8254 47.4435 28.1644L50.3727 33.1977H51.4234C52.528 33.1977 53.4795 32.4157 53.6932 31.3312L53.9787 29.8783C54.0403 29.5759 53.9618 29.263 53.7657 29.0243ZM27.8305 23.688H21.5481V21.7583H20.2756L22.1797 19.2443C22.2615 19.1359 22.389 19.0716 22.5247 19.0694L28.8976 18.9746V21.7583L27.8305 23.688ZM38.2193 23.688H31.4442V18.9364L39.615 18.8149V22.2918L38.2193 23.688ZM41.7109 23.688V18.7833L48.7449 18.6786C48.8647 18.677 48.9639 18.7691 48.9732 18.8885L49.3034 23.688H41.7109Z" fill="black"/>
</svg>
